# xmcd CD database file generated by Grip 3.2.0
# 
# Track frame offsets:
#       183
#       38433
#       69933
#       109233
#       133683
#       157758
#       181608
#       212583
#       247608
# 
# Disc length: 3852 seconds
# 
# Revision: 3
# Processed by: cddbd v1.5.2PL0 Copyright (c) Steve Scherf et al.
# Submitted via: Grip 3.2.0
# 
DISCID=610f0a09
DTITLE=United Jazz and Rock Ensemble - Round Seven
DYEAR=1987
DGENRE=Jazz
TTITLE0=Feuerwerxmusik (a: Overtüre, b: Funk, c: African Dance)
TTITLE1=Seriously Deep
TTITLE2=Raga Yagapriya
TTITLE3=Balance
TTITLE4=Voices Behind Locked Doors
TTITLE5=Midnight Oil
TTITLE6=Raving Raven
TTITLE7=Randy (Late Night Mix)
TTITLE8=Ganz schön heiss Man
EXTD=YEAR: 1987
EXTT0=
EXTT1=
EXTT2=
EXTT3=
EXTT4=
EXTT5=
EXTT6=
EXTT7=
EXTT8=
PLAYORDER=
